<?xml version="1.0" encoding="UTF-8"?>
<svg id="Layer_1" xmlns="http://www.w3.org/2000/svg" viewBox="0 0 732.56 135.4">
  <defs>
    <style>.cls-1{fill:#00abc7;}.cls-2{fill:#34657f;}</style>
  </defs>
  <path class="cls-1" d="m182.01,116.31c-8.21,0-15.76-2.89-21.69-7.71v12.07c6.42,3.61,13.82,5.66,21.69,5.66,12.81,0,24.36-5.45,32.48-14.15-2.24-2.63-4.18-5.51-5.77-8.61-6.32,7.77-15.94,12.75-26.71,12.75Z" />
  <path class="cls-1" d="m216.39,5.01c0-2.77-2.24-5.01-5.01-5.01s-5.01,2.24-5.01,5.01v36.16c3.7,2.1,7.07,4.71,10.02,7.74V5.01Z" />
  <path class="cls-1" d="m250.81,37.46c-12.67,0-24.12,5.34-32.22,13.88,2.22,2.64,4.13,5.55,5.7,8.66,6.32-7.64,15.86-12.52,26.53-12.52,18.98,0,34.42,15.44,34.42,34.42s-15.44,34.42-34.42,34.42c-8.91,0-17.03-3.4-23.15-8.97-5.91-5.16-12.12-15.31-12.91-25.32-.5-6.39-3.97-14.02-8.38-19.53v19.41c0,24.5,19.93,44.43,44.43,44.43s44.44-19.93,44.44-44.43-19.93-44.44-44.44-44.44Z" />
  <path class="cls-1" d="m205.73,57s.06.06.09.09c.19.18.37.36.55.55h0c.16.16.31.32.47.48.08.08.15.16.22.24,1.01,1.08,1.98,2.26,2.9,3.52.21.29.42.58.63.88.1.14.19.28.29.42,3.83,5.64,6.63,12.53,7.1,18.58.44,5.56,2.7,11.16,5.63,15.76,1.84-4.87,2.84-10.13,2.84-15.63,0-24.5-19.93-44.44-44.44-44.44-13.86,0-26.26,6.38-34.42,16.36h0s.02-.03.03-.04c-.01-.01-.02-.03-.03-.04V5.01c0-2.77-2.24-5.01-5.01-5.01s-5.01,2.24-5.01,5.01v76.88c0,5.44.99,10.65,2.78,15.47,3-4.8,5.11-10.33,5.5-15.24.64-8.14,4.77-16.32,9.42-21.88,6.32-7.79,15.95-12.77,26.74-12.77,9.19,0,17.55,3.63,23.72,9.53Z" />
  <path class="cls-2" d="m113.25,47.48c8.21,0,15.76,2.89,21.69,7.71v-12.07c-6.42-3.61-13.82-5.67-21.69-5.67-12.92,0-24.56,5.54-32.69,14.37,2.24,2.65,4.17,5.56,5.74,8.68,6.31-7.94,16.04-13.03,26.94-13.03Z" />
  <path class="cls-2" d="m44.43,116.31c-18.98,0-34.42-15.44-34.42-34.42s15.44-34.42,34.42-34.42c10.45,0,19.83,4.68,26.14,12.06,3.25,3.64,9.03,11.51,9.87,22.23.57,7.23,4.24,14.55,8.43,19.62v-19.47s0-.02,0-.03h0c0-24.5-19.93-44.44-44.43-44.44S0,57.39,0,81.89s19.93,44.43,44.43,44.43c12.8,0,24.34-5.44,32.45-14.13-2.23-2.64-4.16-5.54-5.74-8.65-6.31,7.77-15.94,12.75-26.72,12.75Z" />
  <path class="cls-2" d="m149.09,82.38c-.47,6.02-3.19,12.73-7.02,18.3-.96,1.47-2.03,2.86-3.2,4.17,0,0,0,0,.01.01-4.13,4.59-9.45,8.01-15.35,9.87,0,0,0,0,0,0-3.25,1.02-6.7,1.57-10.28,1.57-9.25,0-17.65-3.67-23.84-9.62-5.69-5.33-11.43-15.06-12.19-24.67-.51-6.53-3.05-11.91-5.56-15.76-1.84,4.87-2.84,10.13-2.84,15.63h0c0,24.5,19.93,44.43,44.43,44.43,4.68,0,9.2-.73,13.44-2.08.02,0,.04-.02.06-.04,8.17-2.62,15.45-7.55,20.89-14.19,0,0,.01.02.02.02v13.72c0,2.77,2.24,5.01,5.01,5.01s5.01-2.24,5.01-5.01v-41.83s0-.03,0-.04c0-5.49-1-10.76-2.84-15.62-2.98,4.65-5.31,10.38-5.76,16.1Z" />
  <path class="cls-2" d="m88.51,121.96c-.41-.24-.82-.49-1.23-.74-3.08-1.93-5.91-4.23-8.43-6.84v.07l-.05-.07v9.4c0,2.77,2.24,5.01,5.01,5.01s5.01-2.24,5.01-5.01v-1.68c-.13-.05-.25-.11-.31-.14Z" />
  <path class="cls-2" d="m714.28,120.11c.28,2.61,2.85,6.98,9.54,6.98,5.89,0,8.74-3.89,8.74-7.41s-2.28-6.08-6.65-7.03l-3.51-.71c-1.42-.28-2.33-1.19-2.33-2.42,0-1.42,1.38-2.66,3.32-2.66,3.09,0,4.08,2.14,4.27,3.47l4.65-1.33c-.38-2.28-2.47-6.46-8.93-6.46-4.8,0-8.5,3.42-8.5,7.45,0,3.18,2.14,5.84,6.22,6.74l3.42.76c1.85.38,2.71,1.33,2.71,2.56,0,1.42-1.19,2.66-3.47,2.66-2.94,0-4.51-1.85-4.7-3.94l-4.8,1.33Zm-6.27-1.8c-.76,2.28-2.47,4.04-5.79,4.04s-6.17-2.52-6.32-6.03h16.9c.05-.09.14-.85.14-1.76,0-7.31-4.18-12.01-11.3-12.01-5.84,0-11.25,4.84-11.25,12.16,0,7.83,5.56,12.39,11.82,12.39,5.56,0,9.21-3.28,10.45-7.31l-4.65-1.47Zm-11.97-6.03c.19-2.47,2.18-5.13,5.65-5.13,3.8,0,5.6,2.42,5.7,5.13h-11.35Zm-15.38-17.14c0,1.99,1.61,3.56,3.56,3.56s3.61-1.57,3.61-3.56-1.61-3.61-3.61-3.61-3.56,1.61-3.56,3.61m6.32,8.12h-5.46v23.12h5.46v-23.12Zm-14.39,11.54c0,4.42-2.56,7.26-6.22,7.26s-6.22-2.85-6.22-7.26,2.61-7.17,6.22-7.17,6.22,2.85,6.22,7.17m-12.39,20.61v-11.63c1.19,1.76,3.7,3.18,7.03,3.18,6.65,0,10.87-5.22,10.87-12.16s-3.85-12.06-10.68-12.06c-3.56,0-6.22,1.66-7.36,3.66v-3.13h-5.32v32.14h5.46Zm-15.86-12.35c0,1.57.14,2.8.24,3.32h5.27c-.05-.47-.24-2.33-.24-4.23v-18.9h-5.37v3.04c-.62-1.57-2.71-3.7-6.79-3.7-6.65,0-11.06,5.41-11.06,12.11s4.37,12.3,11.16,12.3c3.32,0,5.75-1.71,6.79-3.94m-12.44-8.36c0-4.46,2.56-7.31,6.27-7.31s6.13,2.85,6.13,7.31-2.52,7.55-6.13,7.55c-3.85,0-6.27-3.13-6.27-7.55m-5.98-11.59c-.24-.05-.81-.14-1.47-.14-3.04,0-5.6,1.47-6.69,3.99v-3.7h-5.37v23.12h5.51v-11.02c0-4.32,1.95-6.79,6.22-6.79.57,0,1.19.05,1.8.14v-5.6Zm-21.84,15.19c-.76,2.28-2.47,4.04-5.79,4.04s-6.17-2.52-6.32-6.03h16.9c.05-.09.14-.85.14-1.76,0-7.31-4.18-12.01-11.3-12.01-5.84,0-11.25,4.84-11.25,12.16,0,7.83,5.56,12.39,11.82,12.39,5.56,0,9.21-3.28,10.45-7.31l-4.65-1.47Zm-11.97-6.03c.19-2.47,2.18-5.13,5.65-5.13,3.8,0,5.6,2.42,5.7,5.13h-11.35Zm-23.69.52c.09-2.94,1.76-5.22,4.8-5.22,3.47,0,4.75,2.28,4.75,5.13v13.67h5.51v-14.62c0-5.08-2.75-9.16-8.45-9.16-2.42,0-5.03.85-6.6,2.9v-13.48h-5.51v34.38h5.51v-13.58Zm-13.39-16.62h-4.99v3.47c0,2.04-1.09,3.61-3.56,3.61h-1.19v4.89h4.27v11.63c0,4.32,2.66,6.88,6.93,6.88,1.99,0,3.04-.38,3.37-.52v-4.56c-.24.05-1.14.19-1.9.19-2.04,0-2.94-.85-2.94-2.9v-10.73h4.8v-4.89h-4.8v-7.07Zm-22.27,6.36c-6.88,0-11.97,5.18-11.97,12.25s5.08,12.3,11.97,12.3,12.01-5.18,12.01-12.3-5.08-12.25-12.01-12.25m0,19.61c-3.37,0-6.46-2.56-6.46-7.36s3.09-7.26,6.46-7.26,6.46,2.47,6.46,7.26-3.04,7.36-6.46,7.36m-21.7-27.02c0,1.99,1.61,3.56,3.56,3.56s3.61-1.57,3.61-3.56-1.61-3.61-3.61-3.61-3.56,1.61-3.56,3.61m6.32,8.12h-5.46v23.12h5.46v-23.12Zm-26.26,18.28v-9.78h5.98c3.51,0,5.46,2.04,5.46,4.94s-2.23,4.84-5.65,4.84h-5.79Zm0-14.58v-9.4h5.03c3.47,0,5.46,1.85,5.46,4.7s-1.99,4.7-5.32,4.7h-5.18Zm-5.65-14.24v33.66h12.44c6.27,0,10.45-3.89,10.45-9.31,0-3.99-2.47-7.07-6.03-8.02,2.9-1.04,4.99-3.7,4.99-7.26,0-5.27-3.8-9.07-10.26-9.07h-11.59Zm-32.15,7.55c0-2.42,1.9-3.61,3.66-3.61,2.18,0,3.75,1.61,3.75,3.61,0,1.28-.52,2.52-2.28,3.85l-1.95,1.42-.95-1.04c-1.19-1.28-2.23-2.61-2.23-4.23m2.94,21.75c-2.75,0-4.46-2.14-4.46-4.23s1.14-3.56,2.75-4.75l1.14-.85,6.22,6.6-.05.05c-1.71,1.85-3.37,3.18-5.6,3.18m12.91,4.37h7.36l-7.6-7.93,4.61-5.08v-7.12l-8.02,8.64-5.6-5.84,1.47-1.09c2.37-1.8,4.75-4.27,4.75-7.6,0-5.03-3.94-8.36-9.21-8.36-4.37,0-9.02,3.04-9.02,8.59,0,3.13,2.23,5.75,3.85,7.41l.57.62-.33.24c-3.51,2.61-5.84,4.99-5.84,9.31s3.51,8.83,10.02,8.83c3.66,0,6.6-1.8,9.21-4.61l3.8,3.99Zm-34.81-34.38h-5.36v13.96c-.71-1.47-2.76-3.32-6.79-3.32-6.51,0-11.02,5.46-11.02,12.11,0,6.98,4.46,12.2,11.11,12.2,3.28,0,5.7-1.61,6.79-3.56,0,.95.14,2.47.24,2.99h5.27c-.05-.38-.24-2.14-.24-4.23v-30.15Zm-17.66,22.74c0-4.42,2.66-7.22,6.27-7.22s6.08,2.75,6.08,7.17-2.52,7.41-6.13,7.41-6.22-2.94-6.22-7.36m-19.14-12.2c-6.88,0-11.97,5.18-11.97,12.25s5.08,12.3,11.97,12.3,12.01-5.18,12.01-12.3-5.08-12.25-12.01-12.25m0,19.61c-3.37,0-6.46-2.56-6.46-7.36s3.09-7.26,6.46-7.26,6.46,2.47,6.46,7.26-3.04,7.36-6.46,7.36m-25.59-19.61c-6.88,0-11.97,5.18-11.97,12.25s5.08,12.3,11.97,12.3,12.01-5.18,12.01-12.3-5.08-12.25-12.01-12.25m0,19.61c-3.37,0-6.46-2.56-6.46-7.36s3.09-7.26,6.46-7.26,6.46,2.47,6.46,7.26-3.04,7.36-6.46,7.36m-15.38-30.15h-5.51v34.38h5.51v-34.38Zm-26.3,29.53v-9.78h5.98c3.51,0,5.46,2.04,5.46,4.94s-2.23,4.84-5.65,4.84h-5.79Zm0-14.58v-9.4h5.03c3.47,0,5.46,1.85,5.46,4.7s-1.99,4.7-5.32,4.7h-5.18Zm-5.65-14.24v33.66h12.44c6.27,0,10.45-3.89,10.45-9.31,0-3.99-2.47-7.07-6.03-8.02,2.9-1.04,4.99-3.7,4.99-7.26,0-5.27-3.8-9.07-10.26-9.07h-11.59Z" />
  <path class="cls-2" d="m656.67,51.6c1.04,0,1.66.14,1.99.24v-4.7c-.38-.19-1.52-.47-2.9-.47-4.75,0-8.07,3.13-8.07,8.31v3.18h-4.04v4.8h4.04v18.33h5.56v-18.33h5.37v-4.8h-5.37v-3.04c0-2.85,1.95-3.51,3.42-3.51m-25.69,5.84c-6.88,0-11.97,5.18-11.97,12.25s5.08,12.3,11.97,12.3,12.01-5.18,12.01-12.3-5.08-12.25-12.01-12.25m0,19.61c-3.37,0-6.46-2.56-6.46-7.36s3.09-7.26,6.46-7.26,6.46,2.47,6.46,7.26-3.04,7.36-6.46,7.36m-27.31-25.97h-4.99v3.47c0,2.04-1.09,3.61-3.56,3.61h-1.19v4.89h4.27v11.63c0,4.32,2.66,6.88,6.93,6.88,1.99,0,3.04-.38,3.37-.52v-4.56c-.24.05-1.14.19-1.9.19-2.04,0-2.94-.85-2.94-2.9v-10.73h4.8v-4.89h-4.8v-7.07Zm-26.83,16.86c0-3.04,1.66-5.46,4.8-5.46,3.47,0,4.75,2.28,4.75,5.13v13.67h5.51v-14.62c0-5.08-2.71-9.16-8.36-9.16-2.56,0-5.32,1.09-6.84,3.75v-3.09h-5.37v23.12h5.51v-13.34Zm-13.82,5.27c-.76,2.28-2.47,4.04-5.79,4.04s-6.17-2.52-6.32-6.03h16.9c.05-.09.14-.85.14-1.76,0-7.31-4.18-12.01-11.3-12.01-5.84,0-11.25,4.84-11.25,12.16,0,7.83,5.56,12.39,11.82,12.39,5.56,0,9.21-3.28,10.45-7.31l-4.65-1.47Zm-11.97-6.03c.19-2.47,2.18-5.13,5.65-5.13,3.8,0,5.6,2.42,5.7,5.13h-11.35Zm-37.94,14.1v-13.72c0-2.94,1.85-5.13,4.8-5.13,3.13,0,4.46,2.09,4.46,4.75v14.1h5.41v-13.72c0-2.85,1.9-5.13,4.8-5.13,3.09,0,4.46,2.04,4.46,4.75v14.1h5.32v-15c0-6.13-3.99-8.78-8.17-8.78-2.99,0-5.7,1.04-7.5,4.08-1.23-2.71-3.89-4.08-6.93-4.08-2.61,0-5.51,1.23-6.84,3.61v-2.94h-5.27v23.12h5.46Zm-13.77-8.07c-.76,2.28-2.47,4.04-5.79,4.04s-6.17-2.52-6.32-6.03h16.9c.05-.09.14-.85.14-1.76,0-7.31-4.18-12.01-11.3-12.01-5.84,0-11.25,4.84-11.25,12.16,0,7.83,5.56,12.39,11.82,12.39,5.56,0,9.21-3.28,10.45-7.31l-4.65-1.47Zm-11.97-6.03c.19-2.47,2.18-5.13,5.65-5.13,3.8,0,5.6,2.42,5.7,5.13h-11.35Zm-17.33-4.65c3.51,0,5.08,2.28,5.6,4.32l4.94-1.8c-.95-3.7-4.37-7.6-10.59-7.6-6.65,0-11.82,5.13-11.82,12.25s5.18,12.3,11.97,12.3c6.08,0,9.54-3.94,10.64-7.55l-4.84-1.76c-.52,1.76-2.18,4.27-5.79,4.27s-6.46-2.61-6.46-7.26,2.99-7.17,6.36-7.17m-29.91,5.41c0-3.04,1.66-5.46,4.8-5.46,3.47,0,4.75,2.28,4.75,5.13v13.67h5.51v-14.62c0-5.08-2.71-9.16-8.36-9.16-2.56,0-5.32,1.09-6.84,3.75v-3.09h-5.37v23.12h5.51v-13.34Zm-15.91,10.02c0,1.57.14,2.8.24,3.32h5.27c-.05-.47-.24-2.33-.24-4.23v-18.9h-5.37v3.04c-.62-1.57-2.71-3.7-6.79-3.7-6.65,0-11.06,5.41-11.06,12.11s4.37,12.3,11.16,12.3c3.32,0,5.75-1.71,6.79-3.94m-12.44-8.36c0-4.46,2.56-7.31,6.27-7.31s6.13,2.85,6.13,7.31-2.52,7.55-6.13,7.55c-3.85,0-6.27-3.13-6.27-7.55m-5.13-11.44h-5.79l-5.98,16.52-6.13-16.52h-6.08l9.4,23.12h5.51l9.07-23.12Zm-26.21-11.25h-5.37v13.96c-.71-1.47-2.75-3.32-6.79-3.32-6.5,0-11.02,5.46-11.02,12.11,0,6.98,4.46,12.2,11.11,12.2,3.28,0,5.7-1.61,6.79-3.56,0,.95.14,2.47.24,2.99h5.27c-.05-.38-.24-2.14-.24-4.23v-30.15Zm-17.66,22.74c0-4.42,2.66-7.22,6.27-7.22s6.08,2.75,6.08,7.17-2.52,7.41-6.13,7.41-6.22-2.94-6.22-7.36m-21.89-15.86l5.13,13.77h-10.26l5.13-13.77Zm10.3,27.49h6.22l-13.1-33.66h-6.6l-13.1,33.66h6.03l3.13-8.45h14.24l3.18,8.45Z" />
  <path class="cls-2" d="m691.96,28.1c-.76,2.28-2.47,4.04-5.79,4.04s-6.17-2.52-6.32-6.03h16.9c.05-.09.14-.85.14-1.76,0-7.31-4.18-12.01-11.3-12.01-5.84,0-11.25,4.84-11.25,12.16,0,7.83,5.56,12.39,11.82,12.39,5.56,0,9.21-3.28,10.45-7.31l-4.65-1.47Zm-11.97-6.03c.19-2.47,2.18-5.13,5.65-5.13,3.8,0,5.6,2.42,5.7,5.13h-11.35Zm-23.69.52c.09-2.94,1.76-5.22,4.8-5.22,3.47,0,4.75,2.28,4.75,5.13v13.67h5.51v-14.62c0-5.08-2.75-9.16-8.45-9.16-2.42,0-5.03.85-6.6,2.9V1.79h-5.51v34.38h5.51v-13.58Zm-13.39-16.62h-4.99v3.47c0,2.04-1.09,3.61-3.56,3.61h-1.19v4.89h4.27v11.63c0,4.32,2.66,6.88,6.93,6.88,1.99,0,3.04-.38,3.37-.52v-4.56c-.24.05-1.14.19-1.9.19-2.04,0-2.94-.85-2.94-2.9v-10.73h4.8v-4.89h-4.8v-7.07Zm-18.29,6.93c-.24-.05-.81-.14-1.47-.14-3.04,0-5.6,1.47-6.69,3.99v-3.7h-5.37v23.12h5.51v-11.02c0-4.32,1.95-6.79,6.22-6.79.57,0,1.19.05,1.8.14v-5.6Zm-28.96-.57c-6.88,0-11.97,5.18-11.97,12.25s5.08,12.3,11.97,12.3,12.01-5.18,12.01-12.3-5.08-12.25-12.01-12.25m0,19.61c-3.37,0-6.46-2.56-6.46-7.36s3.09-7.26,6.46-7.26,6.46,2.47,6.46,7.26-3.04,7.36-6.46,7.36m-13.91-25.45c1.04,0,1.66.14,1.99.24V2.03c-.38-.19-1.52-.47-2.9-.47-4.75,0-8.07,3.13-8.07,8.31v3.18h-4.04v4.8h4.04v18.33h5.56v-18.33h5.37v-4.8h-5.37v-3.04c0-2.85,1.95-3.51,3.42-3.51m-38.8,16.33c0-3.04,1.66-5.46,4.8-5.46,3.47,0,4.75,2.28,4.75,5.13v13.67h5.51v-14.62c0-5.08-2.71-9.16-8.36-9.16-2.56,0-5.32,1.09-6.84,3.75v-3.09h-5.37v23.12h5.51v-13.34Zm-20.94-10.49c-6.88,0-11.97,5.18-11.97,12.25s5.08,12.3,11.97,12.3,12.01-5.18,12.01-12.3-5.08-12.25-12.01-12.25m0,19.61c-3.37,0-6.46-2.56-6.46-7.36s3.09-7.26,6.46-7.26,6.46,2.47,6.46,7.26-3.04,7.36-6.46,7.36m-21.7-27.02c0,1.99,1.61,3.56,3.56,3.56s3.61-1.57,3.61-3.56-1.61-3.61-3.61-3.61-3.56,1.61-3.56,3.61m6.32,8.12h-5.46v23.12h5.46V13.04Zm-14.01-7.07h-4.99v3.47c0,2.04-1.09,3.61-3.56,3.61h-1.19v4.89h4.27v11.63c0,4.32,2.66,6.88,6.93,6.88,1.99,0,3.04-.38,3.37-.52v-4.56c-.24.05-1.14.19-1.9.19-2.04,0-2.94-.85-2.94-2.9v-10.73h4.8v-4.89h-4.8v-7.07Zm-17.38,26.87c0,1.57.14,2.8.24,3.32h5.27c-.05-.47-.24-2.33-.24-4.23V13.04h-5.37v3.04c-.62-1.57-2.71-3.7-6.79-3.7-6.65,0-11.06,5.41-11.06,12.11s4.37,12.3,11.16,12.3c3.32,0,5.75-1.71,6.79-3.94m-12.44-8.36c0-4.46,2.56-7.31,6.27-7.31s6.13,2.85,6.13,7.31-2.52,7.55-6.13,7.55c-3.85,0-6.27-3.13-6.27-7.55m-15.24-19.56c0,1.99,1.61,3.56,3.56,3.56s3.61-1.57,3.61-3.56-1.61-3.61-3.61-3.61-3.56,1.61-3.56,3.61m6.32,8.12h-5.46v23.12h5.46V13.04Zm-19.18,4.37c3.51,0,5.08,2.28,5.6,4.32l4.94-1.8c-.95-3.7-4.37-7.6-10.59-7.6-6.65,0-11.82,5.13-11.82,12.25s5.18,12.3,11.97,12.3c6.08,0,9.54-3.94,10.64-7.55l-4.84-1.76c-.52,1.76-2.18,4.27-5.79,4.27s-6.46-2.61-6.46-7.26,2.99-7.17,6.36-7.17m-25.5-5.08c-6.88,0-11.97,5.18-11.97,12.25s5.08,12.3,11.97,12.3,12.01-5.18,12.01-12.3-5.08-12.25-12.01-12.25m0,19.61c-3.37,0-6.46-2.56-6.46-7.36s3.09-7.26,6.46-7.26,6.46,2.47,6.46,7.26-3.04,7.36-6.46,7.36m-31.86-2.04c.28,2.61,2.85,6.98,9.54,6.98,5.89,0,8.74-3.89,8.74-7.41s-2.28-6.08-6.65-7.03l-3.51-.71c-1.42-.28-2.33-1.19-2.33-2.42,0-1.42,1.38-2.66,3.32-2.66,3.09,0,4.08,2.14,4.27,3.47l4.65-1.33c-.38-2.28-2.47-6.46-8.93-6.46-4.8,0-8.5,3.42-8.5,7.45,0,3.18,2.14,5.84,6.22,6.74l3.42.76c1.85.38,2.71,1.33,2.71,2.56,0,1.42-1.19,2.66-3.47,2.66-2.94,0-4.51-1.85-4.7-3.94l-4.8,1.33Zm-19.8,0c.28,2.61,2.85,6.98,9.54,6.98,5.89,0,8.74-3.89,8.74-7.41s-2.28-6.08-6.65-7.03l-3.51-.71c-1.42-.28-2.33-1.19-2.33-2.42,0-1.42,1.38-2.66,3.32-2.66,3.09,0,4.08,2.14,4.27,3.47l4.65-1.33c-.38-2.28-2.47-6.46-8.93-6.46-4.8,0-8.5,3.42-8.5,7.45,0,3.18,2.14,5.84,6.22,6.74l3.42.76c1.85.38,2.71,1.33,2.71,2.56,0,1.42-1.19,2.66-3.47,2.66-2.94,0-4.51-1.85-4.7-3.94l-4.8,1.33Zm-16.62-21.22l5.13,13.77h-10.26l5.13-13.77Zm10.3,27.49h6.22l-13.1-33.66h-6.6l-13.1,33.66h6.03l3.13-8.45h14.24l3.18,8.45Z" />
  <path class="cls-2" d="m288.43,116.41c2.78,0,5.04,2.27,5.04,5.05s-2.26,5.07-5.04,5.07-5.01-2.27-5.01-5.07,2.23-5.05,5.01-5.05Zm0,9.08c2.18,0,3.89-1.75,3.89-4.02s-1.71-4.01-3.89-4.01-3.89,1.75-3.89,4.01,1.7,4.02,3.89,4.02Zm-.18-3.29h-.4v1.97h-1.18v-5.49h2.04c1.07,0,1.88.78,1.88,1.75,0,.75-.45,1.36-1.12,1.62l1.16,2.12h-1.34l-1.04-1.97Zm.27-1c.55,0,.86-.29.86-.75s-.31-.77-.86-.77h-.67v1.52h.67Z" />
</svg>